<svg xmlns="http://www.w3.org/2000/svg" xmlns:xlink="http://www.w3.org/1999/xlink" width="500" zoomAndPan="magnify" viewBox="0 0 375 374.999991" height="500" preserveAspectRatio="xMidYMid meet" version="1.0"><defs><clipPath id="id1"><path d="M 0 2.34375 L 375 2.34375 L 375 375 L 0 375 Z M 0 2.34375 " clip-rule="nonzero"/></clipPath></defs><g clip-path="url(#id1)"><path fill="rgb(12.159729%, 64.309692%, 56.858826%)" d="M 374.964844 189.855469 C 374.964844 86.296875 291.03125 2.34375 187.5 2.34375 C 83.96875 2.34375 0.0351562 86.296875 0.0351562 189.855469 C 0.0351562 283.445312 68.589844 361.019531 158.207031 375.085938 L 158.207031 244.054688 L 110.609375 244.054688 L 110.609375 189.855469 L 158.207031 189.855469 L 158.207031 148.542969 C 158.207031 101.546875 186.195312 75.589844 229.015625 75.589844 C 249.527344 75.589844 270.980469 79.253906 270.980469 79.253906 L 270.980469 125.398438 L 247.339844 125.398438 C 224.054688 125.398438 216.792969 139.851562 216.792969 154.679688 L 216.792969 189.855469 L 268.78125 189.855469 L 260.472656 244.054688 L 216.792969 244.054688 L 216.792969 375.085938 C 306.410156 361.019531 374.964844 283.445312 374.964844 189.855469 " fill-opacity="1" fill-rule="nonzero"/></g></svg>