<svg xmlns="http://www.w3.org/2000/svg" xmlns:xlink="http://www.w3.org/1999/xlink" width="500" zoomAndPan="magnify" viewBox="0 0 375 374.999991" height="500" preserveAspectRatio="xMidYMid meet" version="1.0"><defs><clipPath id="id1"><path d="M 0 70.546875 L 235 70.546875 L 235 304.546875 L 0 304.546875 Z M 0 70.546875 " clip-rule="nonzero"/></clipPath></defs><path fill="rgb(12.159729%, 64.309692%, 56.858826%)" d="M 327.84375 164.132812 L 327.84375 117.335938 L 304.449219 117.335938 L 304.449219 164.132812 L 257.671875 164.132812 L 257.671875 187.535156 L 304.449219 187.535156 L 304.449219 234.332031 L 327.84375 234.332031 L 327.84375 187.535156 L 374.625 187.535156 L 374.625 164.132812 L 327.84375 164.132812 " fill-opacity="1" fill-rule="nonzero"/><g clip-path="url(#id1)"><path fill="rgb(12.159729%, 64.309692%, 56.858826%)" d="M 117.328125 210.933594 L 183.5 210.933594 C 173.839844 238.171875 147.828125 257.734375 117.328125 257.734375 C 78.640625 257.734375 47.15625 226.238281 47.15625 187.53125 C 47.15625 148.828125 78.640625 117.332031 117.328125 117.332031 C 134.097656 117.332031 150.238281 123.347656 162.773438 134.273438 L 193.511719 98.984375 C 172.460938 80.640625 145.417969 70.53125 117.328125 70.53125 C 52.839844 70.53125 0.375 123.019531 0.375 187.53125 C 0.375 252.046875 52.839844 304.53125 117.328125 304.53125 C 181.816406 304.53125 234.28125 252.046875 234.28125 187.53125 L 234.28125 164.132812 L 117.328125 164.132812 L 117.328125 210.933594 " fill-opacity="1" fill-rule="nonzero"/></g></svg>